<svg width="99" height="184" viewBox="0 0 99 184" fill="none" xmlns="http://www.w3.org/2000/svg">
<path d="M96.4462 1.11856C97.1819 0.737745 98.087 1.02544 98.4679 1.76115C98.8487 2.49686 98.561 3.40199 97.8253 3.7828L96.4462 1.11856ZM56.4619 37.9405L55.2127 37.1102L56.4619 37.9405ZM48.5378 75.8958L49.9374 75.3562L48.5378 75.8958ZM54.7808 83.7505L54.1691 85.1201L53.9907 85.0405L53.8387 84.9177L54.7808 83.7505ZM73.7793 81.2917L72.9807 80.022L73.7793 81.2917ZM85.1156 66.3924L86.5229 66.9115L85.1156 66.3924ZM84.4615 46.8225L83.1033 47.4592L83.0765 47.4021L83.0547 47.343L84.4615 46.8225ZM48.0795 56.8426L47.2143 55.6173L48.0795 56.8426ZM18.3782 95.1605L19.721 95.8289L18.3782 95.1605ZM8.03268 147.784L9.53224 147.82L8.03268 147.784ZM13.137 178.443L11.6503 178.642L13.137 178.443ZM15.5512 182.723C15.2465 183.493 14.375 183.871 13.6047 183.566L1.0508 178.601C0.280424 178.296 -0.0970925 177.425 0.207578 176.654C0.512248 175.884 1.38374 175.507 2.1541 175.811L13.3131 180.225L17.7264 169.066C18.031 168.295 18.9025 167.918 19.6729 168.222C20.4433 168.527 20.8208 169.398 20.5161 170.169L15.5512 182.723ZM97.8253 3.7828C92.4161 6.58272 84.1007 12.7346 76.2219 19.5518C68.3344 26.3766 61.0834 33.6969 57.7112 38.7707L55.2127 37.1102C58.824 31.6765 66.3403 24.1348 74.259 17.2831C82.1865 10.4238 90.7162 4.0845 96.4462 1.11856L97.8253 3.7828ZM57.7112 38.7707C54.6494 43.3776 51.6748 49.9552 49.9932 56.7203C48.3027 63.5212 47.9776 70.2732 49.9374 75.3562L47.1382 76.4354C44.8545 70.5124 45.3301 63.0435 47.0818 55.9966C48.8424 48.9138 51.9517 42.0168 55.2127 37.1102L57.7112 38.7707ZM49.9374 75.3562C50.4109 76.5844 50.9119 77.6058 51.7362 78.6923C52.5722 79.7944 53.7807 81.0156 55.723 82.5833L53.8387 84.9177C51.7867 83.2614 50.3799 81.8683 49.3461 80.5055C48.3005 79.1272 47.6771 77.8332 47.1382 76.4354L49.9374 75.3562ZM55.3925 82.3809C58.682 83.8502 61.5721 84.1663 64.3437 83.7C67.1507 83.2278 69.9373 81.9361 72.9807 80.022L74.5779 82.5615C71.3773 84.5745 68.2034 86.0928 64.8415 86.6584C61.4442 87.23 57.9571 86.812 54.1691 85.1201L55.3925 82.3809ZM72.9807 80.022C78.5828 76.4985 81.2952 72.4156 83.7083 65.8734L86.5229 66.9115C83.9529 73.8793 80.8943 78.5887 74.5779 82.5615L72.9807 80.022ZM83.7083 65.8734C85.8965 59.9406 85.8134 53.2396 83.1033 47.4592L85.8196 46.1857C88.8977 52.751 88.9656 60.289 86.5229 66.9115L83.7083 65.8734ZM83.0547 47.343C82.6698 46.3027 82.0416 45.6675 81.2134 45.2769C80.3376 44.8639 79.1456 44.6848 77.6291 44.7815C74.5791 44.976 70.6998 46.2499 66.6811 48.026C58.6862 51.5595 50.721 56.8138 48.9447 58.068L47.2143 55.6173C49.0753 54.3033 57.2215 48.9269 65.4684 45.282C69.5707 43.469 73.8449 42.0168 77.4381 41.7876C79.2432 41.6725 80.9953 41.8572 82.493 42.5635C84.0384 43.2923 85.2133 44.5319 85.8683 46.302L83.0547 47.343ZM48.9447 58.068C34.9909 67.9201 27.2758 80.6505 19.721 95.8289L17.0353 94.4921C24.6478 79.1979 32.6345 65.9115 47.2143 55.6173L48.9447 58.068ZM19.721 95.8289C11.4809 112.384 9.99115 128.906 9.53224 147.82L6.53312 147.747C6.99409 128.748 8.48672 111.667 17.0353 94.4921L19.721 95.8289ZM9.53224 147.82C9.40798 152.942 10.3019 157.868 11.4301 162.881C12.547 167.844 13.9166 172.973 14.6237 178.243L11.6503 178.642C10.9667 173.546 9.65524 168.658 8.50326 163.54C7.36247 158.47 6.39961 153.25 6.53312 147.747L9.53224 147.82ZM14.6237 178.243C14.8202 179.709 15.0083 180.364 15.5327 181.575L12.7799 182.767C12.1418 181.294 11.8822 180.371 11.6503 178.642L14.6237 178.243Z" fill="black"/>
</svg>
